<?xml version="1.0" encoding="utf-8"?>
<!-- Generator: Adobe Illustrator 21.1.0, SVG Export Plug-In . SVG Version: 6.00 Build 0)  -->
<svg version="1.1" id="Слой_1" xmlns="http://www.w3.org/2000/svg" xmlns:xlink="http://www.w3.org/1999/xlink" x="0px" y="0px"
	 viewBox="0 0 61.7 73.6" style="enable-background:new 0 0 61.7 73.6;" xml:space="preserve">
<style type="text/css">
	.st0{fill:#6A6C7C;}
</style>
<g>
	<path class="st0" d="M59,16.9c0.8,0.8,1.4,1.8,1.9,3.1c0.5,1.3,0.8,2.5,0.8,3.5v46.3c0,1.1-0.4,2-1.1,2.7c-0.8,0.7-1.7,1.1-2.7,1.1
		h-54c-1.1,0-2-0.4-2.7-1.1C0.4,71.8,0,70.9,0,69.8V5.5c0-1.1,0.4-2,1.1-2.7C1.9,2,2.8,1.6,3.9,1.6h36c1.1,0,2.3,0.3,3.5,0.8
		c1.3,0.5,2.3,1.2,3.1,1.9L59,16.9z M56.6,68.5V27.4H39.9c-1.1,0-2-0.4-2.7-1.1c-0.8-0.7-1.1-1.7-1.1-2.7V6.8H5.1v61.7H56.6z
		 M15.4,33.8c0-0.4,0.1-0.7,0.4-0.9c0.2-0.2,0.5-0.4,0.9-0.4H45c0.4,0,0.7,0.1,0.9,0.4c0.2,0.2,0.4,0.5,0.4,0.9v2.6
		c0,0.4-0.1,0.7-0.4,0.9c-0.2,0.2-0.5,0.4-0.9,0.4H16.7c-0.4,0-0.7-0.1-0.9-0.4c-0.2-0.2-0.4-0.5-0.4-0.9V33.8z M45,42.8
		c0.4,0,0.7,0.1,0.9,0.4c0.2,0.2,0.4,0.5,0.4,0.9v2.6c0,0.4-0.1,0.7-0.4,0.9c-0.2,0.2-0.5,0.4-0.9,0.4H16.7c-0.4,0-0.7-0.1-0.9-0.4
		c-0.2-0.2-0.4-0.5-0.4-0.9v-2.6c0-0.4,0.1-0.7,0.4-0.9c0.2-0.2,0.5-0.4,0.9-0.4H45z M45,53.1c0.4,0,0.7,0.1,0.9,0.4
		c0.2,0.2,0.4,0.5,0.4,0.9v2.6c0,0.4-0.1,0.7-0.4,0.9c-0.2,0.2-0.5,0.4-0.9,0.4H16.7c-0.4,0-0.7-0.1-0.9-0.4
		c-0.2-0.2-0.4-0.5-0.4-0.9v-2.6c0-0.4,0.1-0.7,0.4-0.9c0.2-0.2,0.5-0.4,0.9-0.4H45z M41.1,7.1v15.1h15.1c-0.3-0.8-0.6-1.3-0.9-1.6
		L42.8,8C42.5,7.7,41.9,7.4,41.1,7.1z"/>
</g>
</svg>
